<?xml version="1.0" encoding="UTF-8"?>
<svg version="1.1" xmlns="http://www.w3.org/2000/svg" width="256" height="256">
<path d="M0 0 C84.48 0 168.96 0 256 0 C256 84.48 256 168.96 256 256 C171.52 256 87.04 256 0 256 C0 171.52 0 87.04 0 0 Z " fill="#FBFBFB" transform="translate(0,0)"/>
<path d="M0 0 C9 0 9 0 11.1640625 1.25 C11.64617187 1.8275 12.12828125 2.405 12.625 3 C13.47384766 3.97066406 13.47384766 3.97066406 14.33984375 4.9609375 C14.88769531 5.63382813 15.43554688 6.30671875 16 7 C17.0599275 8.21059051 18.122507 9.41886335 19.1875 10.625 C19.76113281 11.29015625 20.33476563 11.9553125 20.92578125 12.640625 C24.03093128 16.17266006 27.23640336 19.61006177 30.43603516 23.05639648 C34.40846992 27.34060302 38.30304973 31.68559289 42.16015625 36.07421875 C44.04576685 38.18827176 44.04576685 38.18827176 47 40 C52.63873398 34.45303565 58.18626043 28.91538456 63.32421875 22.89453125 C65.76289244 20.13752254 68.39763245 17.59304658 71.01953125 15.01171875 C72.99273283 13.00738184 74.847815 10.93951107 76.6875 8.8125 C77.26113281 8.15894531 77.83476562 7.50539063 78.42578125 6.83203125 C79.78149166 5.25429383 81.08381761 3.63096723 82.375 2 C85.33444296 -0.25481368 86.09343635 -0.22793697 89.6640625 -0.125 C90.47568848 -0.10695312 91.28731445 -0.08890625 92.12353516 -0.0703125 C92.74276855 -0.04710937 93.36200195 -0.02390625 94 0 C96.43178545 22.68775658 96.43178545 22.68775658 91.12890625 29.49609375 C88.22724789 32.5312896 85.01948057 35.14913536 81.67480469 37.68066406 C79.51505299 39.38201948 77.80104147 41.31439637 76.0625 43.4375 C73.43873092 46.53473117 70.6448287 49.37561467 67.75 52.21875 C65.29620056 54.71636729 63.04153232 57.37104543 60.7578125 60.0234375 C58.49282625 62.5702887 56.07543151 64.93721737 53.64453125 67.32421875 C51.25894579 69.755136 49.13478841 72.34768712 47 75 C46.27554688 74.27425781 45.55109375 73.54851562 44.8046875 72.80078125 C43.06518313 71.06369958 41.32122718 69.33104865 39.5703125 67.60546875 C25.69747575 53.88775957 25.69747575 53.88775957 23 48 C22.34 48 21.68 48 21 48 C21 66.15 21 84.3 21 103 C14.07 103 7.14 103 0 103 C0 69.01 0 35.02 0 0 Z " fill="#101010" transform="translate(54,57)"/>
<path d="M0 0 C1.74796875 0.04737305 1.74796875 0.04737305 3.53125 0.09570312 C6.39842891 0.17795826 9.26040386 0.29283948 12.125 0.4375 C8.52793929 4.67115393 4.88591353 8.84750654 1.125 12.9375 C0.66134033 13.44176514 0.19768066 13.94603027 -0.2800293 14.46557617 C-7.04651664 21.81182516 -13.87761938 29.09832685 -20.70263672 36.39013672 C-28.15417573 44.35213705 -35.56957992 52.34093996 -42.875 60.4375 C-41.3908627 63.92404476 -39.41285948 66.07941072 -36.6875 68.6875 C-33.16075643 72.0721856 -29.9428948 75.62376126 -26.74633789 79.31445312 C-23.03011755 83.53053298 -19.11039066 87.56147404 -15.21679688 91.61328125 C-11.65973339 95.36252043 -8.58497563 99.03293201 -5.875 103.4375 C-33.37135743 106.21248416 -33.37135743 106.21248416 -40.9609375 100.15625 C-44.18118486 96.92947225 -46.85461418 93.38928594 -49.37451172 89.59765625 C-51.90440085 85.95553796 -54.8972034 82.71588914 -57.875 79.4375 C-62.69928387 81.04559462 -65.42478995 84.01578418 -67.875 88.4375 C-68.7789977 93.61066602 -68.82741847 98.10836859 -68.875 103.4375 C-75.475 103.4375 -82.075 103.4375 -88.875 103.4375 C-89.06501018 100.08065357 -89.20311616 96.73464657 -89.3125 93.375 C-89.37115234 92.43205078 -89.42980469 91.48910156 -89.49023438 90.51757812 C-89.65982961 83.56417348 -89.65982961 83.56417348 -87.40869141 80.33251953 C-85.64083721 78.57778485 -83.81108386 77.00230216 -81.875 75.4375 C-80.68980123 74.12061247 -79.51836369 72.79086926 -78.375 71.4375 C-75.59260668 68.20793633 -72.66480571 65.20427347 -69.625 62.21875 C-67.79257513 60.35360326 -66.08146865 58.41822254 -64.375 56.4375 C-61.62141194 53.24137101 -58.72789662 50.26488155 -55.71801758 47.31176758 C-53.94382371 45.50749067 -52.28567338 43.64920309 -50.63671875 41.73046875 C-46.92783545 37.46500798 -43.07758284 33.34989364 -39.1875 29.25 C-37.77949771 27.75953975 -36.37195014 26.26864983 -34.96484375 24.77734375 C-34.27503418 24.04628418 -33.58522461 23.31522461 -32.87451172 22.56201172 C-29.98524617 19.49212297 -27.11253132 16.4073153 -24.25 13.3125 C-23.79020752 12.8172583 -23.33041504 12.3220166 -22.85668945 11.81176758 C-20.06649088 8.82428371 -20.06649088 8.82428371 -17.66064453 5.53198242 C-13.09221488 -1.17837503 -7.57374997 -0.3889454 0 0 Z " fill="#101010" transform="translate(190.875,56.5625)"/>
<path d="M0 0 C2.12890625 0.41015625 2.12890625 0.41015625 4.69140625 1.91015625 C6.70357515 5.40958042 7.01145513 8.53461552 6.12890625 12.41015625 C3.68761894 15.85667951 2.29923751 17.19071914 -1.87109375 17.97265625 C-5.53016879 17.28657968 -7.22277051 15.98281311 -9.87109375 13.41015625 C-11.29771594 10.55691188 -11.18143243 8.57561076 -10.87109375 5.41015625 C-8.28120738 0.23038351 -5.42438033 -0.34851867 0 0 Z " fill="#212222" transform="translate(93.87109375,172.58984375)"/>
<path d="M0 0 C1.65 0 3.3 0 5 0 C5.99 2.97 6.98 5.94 8 9 C8.66 9 9.32 9 10 9 C10.99 6.03 11.98 3.06 13 0 C14.65 0 16.3 0 18 0 C18 5.28 18 10.56 18 16 C16.68 16 15.36 16 14 16 C13.67 14.02 13.34 12.04 13 10 C12.34 11.98 11.68 13.96 11 16 C9.125 15.8125 9.125 15.8125 7 15 C5.75 12.4375 5.75 12.4375 5 10 C4.67 12.31 4.34 14.62 4 17 C2.68 17 1.36 17 0 17 C0 11.39 0 5.78 0 0 Z " fill="#2B2B2B" transform="translate(33,173)"/>
<path d="M0 0 C8.3984375 -0.1953125 8.3984375 -0.1953125 11 0 C13 2 13 2 13.25 4.9375 C13 8 13 8 11 11 C11.495 11.61875 11.99 12.2375 12.5 12.875 C14 15 14 15 14 17 C11.625 16.8125 11.625 16.8125 9 16 C7.6875 13.4375 7.6875 13.4375 7 11 C6.01 11 5.02 11 4 11 C4 12.98 4 14.96 4 17 C2.68 17 1.36 17 0 17 C0 11.39 0 5.78 0 0 Z " fill="#2B2B2B" transform="translate(68,173)"/>
<path d="M0 0 C1.32 0 2.64 0 4 0 C4 1.98 4 3.96 4 6 C5.98 6 7.96 6 10 6 C10 4.02 10 2.04 10 0 C11.32 0 12.64 0 14 0 C14 5.28 14 10.56 14 16 C12.68 16 11.36 16 10 16 C10 14.02 10 12.04 10 10 C8.02 10 6.04 10 4 10 C4 12.31 4 14.62 4 17 C2.68 17 1.36 17 0 17 C0 11.39 0 5.78 0 0 Z " fill="#363636" transform="translate(173,173)"/>
<path d="M0 0 C1.65 0 3.3 0 5 0 C5.81832722 1.89332534 6.62942268 3.78977733 7.4375 5.6875 C8.11619141 7.27111328 8.11619141 7.27111328 8.80859375 8.88671875 C9.85447455 11.61972529 10.53520748 14.12042337 11 17 C9.68 17 8.36 17 7 17 C6.67 16.01 6.34 15.02 6 14 C3.69 13.67 1.38 13.34 -1 13 C-1.33 14.32 -1.66 15.64 -2 17 C-2.99 17 -3.98 17 -5 17 C-4.35083537 10.99522721 -2.14204997 5.599219 0 0 Z " fill="#242424" transform="translate(209,173)"/>
<path d="M0 0 C1.65 0 3.3 0 5 0 C5.81832722 1.89332534 6.62942268 3.78977733 7.4375 5.6875 C8.11619141 7.27111328 8.11619141 7.27111328 8.80859375 8.88671875 C9.85447455 11.61972529 10.53520748 14.12042337 11 17 C9.68 17 8.36 17 7 17 C6.67 16.01 6.34 15.02 6 14 C3.69 13.67 1.38 13.34 -1 13 C-1.33 14.32 -1.66 15.64 -2 17 C-2.99 17 -3.98 17 -5 17 C-3.83348574 11.07136283 -2.24480642 5.61201606 0 0 Z " fill="#222323" transform="translate(129,173)"/>
<path d="M0 0 C3.63 0 7.26 0 11 0 C11 0.99 11 1.98 11 3 C8.69 3 6.38 3 4 3 C4 3.99 4 4.98 4 6 C6.31 6 8.62 6 11 6 C11 7.32 11 8.64 11 10 C8.69 10 6.38 10 4 10 C4 10.99 4 11.98 4 13 C6.64 13 9.28 13 12 13 C12 14.32 12 15.64 12 17 C8.04 17 4.08 17 0 17 C0 11.39 0 5.78 0 0 Z " fill="#292929" transform="translate(54,173)"/>
<path d="M0 0 C1.32 0 2.64 0 4 0 C4.33 1.65 4.66 3.3 5 5 C5.5775 4.175 6.155 3.35 6.75 2.5 C7.4925 1.675 8.235 0.85 9 0 C10.32 0 11.64 0 13 0 C11.66666667 2.66666667 10.33333333 5.33333333 9 8 C9.3609375 8.48210937 9.721875 8.96421875 10.09375 9.4609375 C10.5578125 10.09257812 11.021875 10.72421875 11.5 11.375 C11.9640625 12.00148437 12.428125 12.62796875 12.90625 13.2734375 C14 15 14 15 14 17 C10.32579134 16.69381595 9.21864487 16.24228216 6.6875 13.4375 C6.130625 12.633125 5.57375 11.82875 5 11 C4.67 12.98 4.34 14.96 4 17 C2.68 17 1.36 17 0 17 C0 11.39 0 5.78 0 0 Z " fill="#1F1F1F" transform="translate(108,173)"/>
<path d="M0 0 C1.32 0 2.64 0 4 0 C4.33 1.65 4.66 3.3 5 5 C5.5775 4.175 6.155 3.35 6.75 2.5 C7.4925 1.675 8.235 0.85 9 0 C10.32 0 11.64 0 13 0 C11.66666667 2.66666667 10.33333333 5.33333333 9 8 C9.3609375 8.48210937 9.721875 8.96421875 10.09375 9.4609375 C10.5578125 10.09257812 11.021875 10.72421875 11.5 11.375 C11.9640625 12.00148437 12.428125 12.62796875 12.90625 13.2734375 C14 15 14 15 14 17 C10.32579134 16.69381595 9.21864487 16.24228216 6.6875 13.4375 C6.130625 12.633125 5.57375 11.82875 5 11 C4.67 12.98 4.34 14.96 4 17 C2.68 17 1.36 17 0 17 C0 11.39 0 5.78 0 0 Z " fill="#1D1D1D" transform="translate(142,173)"/>
<path d="M0 0 C2.01822917 0.06510417 4.03645833 0.13020833 6.0546875 0.1953125 C6.7146875 1.5153125 7.3746875 2.8353125 8.0546875 4.1953125 C5.4146875 3.8653125 2.7746875 3.5353125 0.0546875 3.1953125 C0.0546875 4.1853125 0.0546875 5.1753125 0.0546875 6.1953125 C1.0034375 6.3190625 1.9521875 6.4428125 2.9296875 6.5703125 C6.0546875 7.1953125 6.0546875 7.1953125 8.0546875 9.1953125 C8.3671875 12.1953125 8.3671875 12.1953125 8.0546875 15.1953125 C4.58544869 17.50813837 3.13263175 17.62009836 -0.9453125 17.1953125 C-2.8203125 15.6953125 -2.8203125 15.6953125 -3.9453125 14.1953125 C-3.6153125 13.2053125 -3.2853125 12.2153125 -2.9453125 11.1953125 C-2.3471875 11.5253125 -1.7490625 11.8553125 -1.1328125 12.1953125 C1.10855221 13.40319238 1.10855221 13.40319238 4.0546875 13.1953125 C4.0546875 12.5353125 4.0546875 11.8753125 4.0546875 11.1953125 C2.9203125 10.7209375 1.7859375 10.2465625 0.6171875 9.7578125 C-2.9453125 8.1953125 -2.9453125 8.1953125 -3.9453125 7.1953125 C-4.1328125 4.7578125 -4.1328125 4.7578125 -3.9453125 2.1953125 C-1.9453125 0.1953125 -1.9453125 0.1953125 0 0 Z " fill="#1A1B1B" transform="translate(161.9453125,172.8046875)"/>
<path d="M0 0 C0.185625 1.093125 0.37125 2.18625 0.5625 3.3125 C1.57516528 6.9490498 1.57516528 6.9490498 3.69140625 8.1328125 C5.83650143 9.05926212 5.83650143 9.05926212 9 10 C8.67 10.99 8.34 11.98 8 13 C5.61435923 12.42415568 3.33317216 11.77772405 1 11 C0.01 11.99 -0.98 12.98 -2 14 C-7.57142857 8.85714286 -7.57142857 8.85714286 -8 5 C-2.25 0 -2.25 0 0 0 Z " fill="#EFEFEF" transform="translate(158,174)"/>
<path d="M0 0 C1.32 0 2.64 0 4 0 C5.75 2.5 5.75 2.5 7 5 C7.99 3.35 8.98 1.7 10 0 C11.32 0.33 12.64 0.66 14 1 C13.360625 1.969375 12.72125 2.93875 12.0625 3.9375 C9.61648472 8.1553638 9.21790511 12.19519242 9 17 C7.68 17 6.36 17 5 17 C4.89042969 16.33613281 4.78085938 15.67226562 4.66796875 14.98828125 C3.77839831 10.03416944 2.89625691 6.21273732 0 2 C0 1.34 0 0.68 0 0 Z " fill="#232323" transform="translate(190,173)"/>
<path d="M0 0 C2.5625 0.3125 2.5625 0.3125 4.4375 1.4375 C5.5625 3.3125 5.5625 3.3125 5.3125 6.4375 C4.5625 9.3125 4.5625 9.3125 3.5625 10.3125 C0.625 10.5 0.625 10.5 -2.4375 10.3125 C-4.4375 8.3125 -4.4375 8.3125 -4.6875 5.3125 C-4.37675292 1.58353509 -3.7821044 0.48488518 0 0 Z " fill="#EFEFEF" transform="translate(91.4375,175.6875)"/>
<path d="M0 0 C0.99 0 1.98 0 3 0 C3 5.28 3 10.56 3 16 C1.68 16 0.36 16 -1 16 C-1 13.69 -1 11.38 -1 9 C-3.31 9 -5.62 9 -8 9 C-8 8.34 -8 7.68 -8 7 C-5.36 7 -2.72 7 0 7 C0 4.69 0 2.38 0 0 Z " fill="#0C0C0C" transform="translate(184,173)"/>
<path d="M0 0 C0.33 0 0.66 0 1 0 C1 5.28 1 10.56 1 16 C-2 13 -2 13 -2.8125 10.4375 C-3.83077151 7.66714396 -3.83077151 7.66714396 -7.125 6.6875 C-8.07375 6.460625 -9.0225 6.23375 -10 6 C-10 5.01 -10 4.02 -10 3 C-7.36 3.33 -4.72 3.66 -2 4 C-1.34 2.68 -0.68 1.36 0 0 Z " fill="#E9E9E9" transform="translate(172,173)"/>
<path d="M0 0 C3.3 0 6.6 0 10 0 C10.33 1.32 10.66 2.64 11 4 C10.01 5.485 10.01 5.485 9 7 C8.67 6.01 8.34 5.02 8 4 C5.03 3.505 5.03 3.505 2 3 C2 7.29 2 11.58 2 16 C1.34 16 0.68 16 0 16 C0 10.72 0 5.44 0 0 Z " fill="#060606" transform="translate(69,173)"/>
<path d="M0 0 C1.65 0 3.3 0 5 0 C5 5.28 5 10.56 5 16 C4.01 16 3.02 16 2 16 C1.93941406 15.38511719 1.87882812 14.77023438 1.81640625 14.13671875 C1.73261719 13.32847656 1.64882813 12.52023438 1.5625 11.6875 C1.48128906 10.88699219 1.40007813 10.08648437 1.31640625 9.26171875 C1.04734307 6.83912821 1.04734307 6.83912821 0 4 C0 2.68 0 1.36 0 0 Z " fill="#101010" transform="translate(46,173)"/>
<path d="M0 0 C0.99 0.66 1.98 1.32 3 2 C3.66 1.34 4.32 0.68 5 0 C5.66 1.65 6.32 3.3 7 5 C6.1028125 5.061875 6.1028125 5.061875 5.1875 5.125 C2.64899168 5.87739901 2.64899168 5.87739901 1.25 9.0625 C0.8375 10.031875 0.425 11.00125 0 12 C-0.99 12 -1.98 12 -3 12 C-2.68950274 10.56206608 -2.3765224 9.1246682 -2.0625 7.6875 C-1.88847656 6.88699219 -1.71445313 6.08648437 -1.53515625 5.26171875 C-1 3 -1 3 0 0 Z " fill="#545554" transform="translate(127,178)"/>
<path d="M0 0 C1.65 0 3.3 0 5 0 C7.21538462 5.41538462 7.21538462 5.41538462 6.125 8.375 C5.75375 8.91125 5.3825 9.4475 5 10 C4.34 8.68 3.68 7.36 3 6 C2.01 6.66 1.02 7.32 0 8 C-0.79953138 4.71303767 -1.09658936 3.28976808 0 0 Z " fill="#191919" transform="translate(129,173)"/>
<path d="M0 0 C0.99 0 1.98 0 3 0 C2.67 4.95 2.34 9.9 2 15 C2.66 15 3.32 15 4 15 C4 15.66 4 16.32 4 17 C2.68 17 1.36 17 0 17 C0 11.39 0 5.78 0 0 Z " fill="#303030" transform="translate(142,173)"/>
<path d="M0 0 C0.99 0 1.98 0 3 0 C2.67 4.95 2.34 9.9 2 15 C2.66 15 3.32 15 4 15 C4 15.66 4 16.32 4 17 C2.68 17 1.36 17 0 17 C0 11.39 0 5.78 0 0 Z " fill="#2F2F2F" transform="translate(108,173)"/>
<path d="M0 0 C0.556875 0.309375 1.11375 0.61875 1.6875 0.9375 C4.12540433 2.05761821 6.36224186 2.56037364 9 3 C8.67 3.99 8.34 4.98 8 6 C2.46153846 6.36923077 2.46153846 6.36923077 0.125 4.5 C-0.24625 4.005 -0.6175 3.51 -1 3 C-0.67 2.01 -0.34 1.02 0 0 Z " fill="#232323" transform="translate(159,184)"/>
<path d="M0 0 C0.33 0.66 0.66 1.32 1 2 C2.32 2 3.64 2 5 2 C5.33 3.98 5.66 5.96 6 8 C4.35 8 2.7 8 1 8 C-1.125 3.375 -1.125 3.375 0 0 Z " fill="#6D6D6E" transform="translate(208,175)"/>
<path d="M0 0 C0.33 1.32 0.66 2.64 1 4 C0.34 4 -0.32 4 -1 4 C-1 5.98 -1 7.96 -1 10 C-1.33 10 -1.66 10 -2 10 C-2 7.69 -2 5.38 -2 3 C-4.31 3 -6.62 3 -9 3 C-9 2.34 -9 1.68 -9 1 C-4.545 0.505 -4.545 0.505 0 0 Z " fill="#212121" transform="translate(185,179)"/>
<path d="M0 0 C1.32 0 2.64 0 4 0 C5.85776765 3.13498292 6.20140476 5.37471432 6 9 C5.34 9 4.68 9 4 9 C0 2.25 0 2.25 0 0 Z " fill="#181818" transform="translate(190,173)"/>
<path d="M0 0 C0.99 0 1.98 0 3 0 C3.36923077 5.53846154 3.36923077 5.53846154 1.5 7.875 C0.7575 8.431875 0.7575 8.431875 0 9 C-0.66 8.01 -1.32 7.02 -2 6 C-1.125 2.8125 -1.125 2.8125 0 0 Z " fill="#131313" transform="translate(97,179)"/>
<path d="M0 0 C1.8125 1.375 1.8125 1.375 2.5625 3.5 C2.68625 4.428125 2.68625 4.428125 2.8125 5.375 C-1.00847239 4.84430939 -3.24921403 3.87798434 -6.1875 1.375 C-3.79410847 -0.16360884 -2.80166935 -0.80047696 0 0 Z " fill="#242425" transform="translate(97.1875,173.625)"/>
<path d="M0 0 C-0.33 1.98 -0.66 3.96 -1 6 C-1.66 5.01 -2.32 4.02 -3 3 C-6.56769552 2.26393501 -6.56769552 2.26393501 -10 2 C-10 1.34 -10 0.68 -10 0 C-3.375 -1.125 -3.375 -1.125 0 0 Z " fill="#141414" transform="translate(80,174)"/>
<path d="M0 0 C1.32 0 2.64 0 4 0 C2.60667426 3.36720387 1.0210714 4.9859524 -2 7 C-2.33 6.01 -2.66 5.02 -3 4 C-1.8125 1.8125 -1.8125 1.8125 0 0 Z " fill="#191919" transform="translate(117,173)"/>
<path d="M0 0 C1.65 0 3.3 0 5 0 C4.67 1.65 4.34 3.3 4 5 C2.68 5 1.36 5 0 5 C0 3.35 0 1.7 0 0 Z " fill="#EAEAEA" transform="translate(72,176)"/>
<path d="M0 0 C3.16115776 1.36983503 3.9927092 1.9890638 6 5 C3 5 3 5 0 3 C-0.99 3.495 -0.99 3.495 -2 4 C-1.34 2.68 -0.68 1.36 0 0 Z " fill="#E2E2E2" transform="translate(131,135)"/>
<path d="M0 0 C2.31 0 4.62 0 7 0 C7.66 1.32 8.32 2.64 9 4 C5.65626525 3.44271087 2.96687001 2.64826111 0 1 C0 0.67 0 0.34 0 0 Z " fill="#111111" transform="translate(161,173)"/>
<path d="M0 0 C0.66 0.66 1.32 1.32 2 2 C3.98356483 2.71408334 5.98315437 3.38617742 8 4 C8 4.33 8 4.66 8 5 C5.03 5 2.06 5 -1 5 C-0.67 3.35 -0.34 1.7 0 0 Z " fill="#0D0D0D" transform="translate(207,180)"/>
<path d="M0 0 C0.99 0.33 1.98 0.66 3 1 C3 2.98 3 4.96 3 7 C2.01 7.495 2.01 7.495 1 8 C0.26919734 6.02253397 -0.39421747 4.01927511 -1 2 C-0.67 1.34 -0.34 0.68 0 0 Z " fill="#131314" transform="translate(167,181)"/>
<path d="M0 0 C1.17539996 0.92652701 2.34010577 1.86663387 3.5 2.8125 C4.1496875 3.33457031 4.799375 3.85664062 5.46875 4.39453125 C7 6 7 6 7 9 C0.70535714 4.17857143 0.70535714 4.17857143 0 0 Z " fill="#191A1A" transform="translate(150,122)"/>
<path d="M0 0 C1.4540625 0.0309375 1.4540625 0.0309375 2.9375 0.0625 C0.05714908 2.30277294 -2.91116512 4.22422132 -6.0625 6.0625 C-3.76028481 0.07674051 -3.76028481 0.07674051 0 0 Z " fill="#090909" transform="translate(92.0625,172.9375)"/>
<path d="M0 0 C2.475 0.99 2.475 0.99 5 2 C4.01 2.33 3.02 2.66 2 3 C1.67 3.66 1.34 4.32 1 5 C0.01 5.66 -0.98 6.32 -2 7 C-2.125 4.625 -2.125 4.625 -2 2 C-1.34 1.34 -0.68 0.68 0 0 Z " fill="#2A2B2B" transform="translate(160,173)"/>
<path d="M0 0 C0.99 0.33 1.98 0.66 3 1 C-0.96 4.465 -0.96 4.465 -5 8 C-5.66 7.67 -6.32 7.34 -7 7 C-4.69 4.69 -2.38 2.38 0 0 Z " fill="#252525" transform="translate(171,65)"/>
<path d="M0 0 C0 1.98 0 3.96 0 6 C-1.32 5.67 -2.64 5.34 -4 5 C-4 4.01 -4 3.02 -4 2 C-1 0 -1 0 0 0 Z " fill="#131414" transform="translate(44,183)"/>
<path d="M0 0 C-1.38081223 4.1424367 -3.59825558 5.32203099 -7 8 C-7.66 7.67 -8.32 7.34 -9 7 C-7.88121617 5.82737096 -6.75476949 4.66204862 -5.625 3.5 C-4.68527344 2.52546875 -4.68527344 2.52546875 -3.7265625 1.53125 C-2 0 -2 0 0 0 Z " fill="#242424" transform="translate(160,79)"/>
</svg>
