<?xml version="1.0" encoding="UTF-8"?>
<svg version="1.1" xmlns="http://www.w3.org/2000/svg" width="256" height="256">
<path d="M0 0 C84.48 0 168.96 0 256 0 C256 84.48 256 168.96 256 256 C171.52 256 87.04 256 0 256 C0 171.52 0 87.04 0 0 Z " fill="#0A0A0A" transform="translate(0,0)"/>
<path d="M0 0 C9 0 9 0 11.1640625 1.50390625 C11.64617187 2.18324219 12.12828125 2.86257812 12.625 3.5625 C13.18445313 4.29597656 13.74390625 5.02945313 14.3203125 5.78515625 C14.87460938 6.51605469 15.42890625 7.24695313 16 8 C17.14464766 9.18827773 18.31109235 10.35600664 19.5 11.5 C22.59356643 14.53832417 25.42105507 17.7476532 28.25 21.03125 C30.47064871 23.5294798 32.83859545 25.85059372 35.22265625 28.19140625 C38.30153988 31.3244241 41.14730735 34.66174265 44 38 C47.59827472 36.51078116 49.54613518 34.50217853 52.0625 31.5625 C55.45764047 27.68633469 58.95607286 23.99346046 62.625 20.375 C65.80437096 17.2311032 68.89139876 14.07288223 71.8125 10.6875 C72.3590625 10.06230469 72.905625 9.43710938 73.46875 8.79296875 C74.47746351 7.61184757 75.45795119 6.40593553 76.40625 5.17578125 C78.62064015 2.53696632 79.96066994 1.10154666 83.4987793 0.75585938 C84.38992432 0.78486328 85.28106934 0.81386719 86.19921875 0.84375 C87.09858154 0.86630859 87.99794434 0.88886719 88.92456055 0.91210938 C89.60945557 0.94111328 90.29435059 0.97011719 91 1 C93.53649661 19.39691721 93.53649661 19.39691721 89.54248047 26.64501953 C85.90509307 31.38308208 81.59721082 35.34684882 77.06420898 39.21459961 C72.56157902 43.10906832 68.39744982 47.38536476 64.5625 51.9375 C61.51193747 55.48053002 58.26396419 58.75672141 54.93359375 62.03515625 C52.12186826 64.89232376 49.5656279 67.92124652 47 71 C44 70 44 70 37 62 C32.05 56.72 27.1 51.44 22 46 C21.67 63.49 21.34 80.98 21 99 C14.07 99 7.14 99 0 99 C0 66.33 0 33.66 0 0 Z " fill="#F9F9F9" transform="translate(55,57)"/>
<path d="M0 0 C1.12664062 0.02255859 2.25328125 0.04511719 3.4140625 0.06835938 C6.19405232 0.12725746 8.97135332 0.20945799 11.75 0.3125 C10.26540666 2.04452557 8.78077865 3.77652113 7.29589844 5.50830078 C6.16703072 6.82578853 5.04000532 8.14485547 3.9140625 9.46484375 C0.34896314 13.59999707 -3.38770807 17.47891392 -7.27734375 21.30859375 C-9.82337829 23.89496151 -12.17021557 26.6278528 -14.53515625 29.37890625 C-16.75169397 31.87819138 -19.12162281 34.19531884 -21.50390625 36.53515625 C-23.93231847 39.00702998 -26.16060219 41.63488852 -28.4140625 44.265625 C-30.97558875 47.12145426 -33.74711694 49.7390826 -36.55078125 52.35546875 C-38.45641965 54.55023849 -39.3190673 56.57640845 -40.25 59.3125 C-39.32058594 60.2303125 -38.39117187 61.148125 -37.43359375 62.09375 C-25.88546481 73.54197623 -25.88546481 73.54197623 -20.8203125 79.5234375 C-19.04534619 81.5456628 -17.16700977 83.42464627 -15.25 85.3125 C-11.38195078 89.12766573 -7.64142226 93.06262398 -4.25 97.3125 C-4.25 97.6425 -4.25 97.9725 -4.25 98.3125 C-30.55568188 100.04348737 -30.55568188 100.04348737 -36.08984375 96.3671875 C-38.5547572 93.82049967 -40.39789733 91.32755087 -42.25 88.3125 C-43.45269492 86.87329186 -44.68042128 85.45445841 -45.9375 84.0625 C-46.74960938 83.11117187 -46.74960938 83.11117187 -47.578125 82.140625 C-50.23671194 79.23357199 -53.20094968 76.80152067 -56.25 74.3125 C-60.2526225 77.22349818 -64.46433375 80.32126228 -65.77441406 85.30908203 C-66.41990657 90.02884652 -66.29040433 94.50438455 -66.25 99.3125 C-72.85 99.3125 -79.45 99.3125 -86.25 99.3125 C-88.01708404 81.01055815 -88.01708404 81.01055815 -83.625 75.171875 C-80.70986445 71.91215373 -77.49296778 68.98976973 -74.21679688 66.09814453 C-71.06275948 63.23461058 -68.24080218 60.08480543 -65.375 56.9375 C-64.21669355 55.69358743 -63.05650711 54.45142306 -61.89453125 53.2109375 C-61.30494629 52.58026367 -60.71536133 51.94958984 -60.10791016 51.29980469 C-59.4947998 50.64399414 -58.88168945 49.98818359 -58.25 49.3125 C-57.59177246 48.60770508 -56.93354492 47.90291016 -56.25537109 47.17675781 C-42.81434724 32.79412815 -42.81434724 32.79412815 -36.1875 26.25 C-32.59435192 22.69975518 -29.21309012 19.06126918 -25.9375 15.21875 C-23.47191845 12.43355603 -20.81700053 9.85491396 -18.14453125 7.26953125 C-16.10778596 5.3414156 -16.10778596 5.3414156 -14.77734375 2.59375 C-10.53269929 -1.23758287 -5.48453718 -0.20678359 0 0 Z " fill="#F9F9F9" transform="translate(188.25,56.6875)"/>
<path d="M0 0 C3.32961021 0.55493503 5.30091917 1.49496853 8 3.5 C9.6026571 6.70531421 9.48207377 10.02218208 9 13.5 C6.86398066 16.83219018 5.3672811 17.39315459 1.5625 18.5 C-2 18.5 -2 18.5 -4.875 16.6875 C-7.55746728 13.92613662 -7.93791719 13.04839814 -8.375 9.1875 C-8 5.5 -8 5.5 -5.875 2.5625 C-3 0.5 -3 0.5 0 0 Z " fill="#E2E2E2" transform="translate(93,169.5)"/>
<path d="M0 0 C1.65 0 3.3 0 5 0 C6.32 2.64 7.64 5.28 9 8 C11.00538322 5.11633739 11.00538322 5.11633739 12.375 2.3125 C12.91125 1.549375 13.4475 0.78625 14 0 C15.32 0 16.64 0 18 0 C18 5.61 18 11.22 18 17 C17.01 17 16.02 17 15 17 C14.67 14.36 14.34 11.72 14 9 C12.68 11.64 11.36 14.28 10 17 C9.34 17 8.68 17 8 17 C7.01 15.02 6.02 13.04 5 11 C4.67 12.98 4.34 14.96 4 17 C2.68 17 1.36 17 0 17 C0 11.39 0 5.78 0 0 Z " fill="#E9E9E9" transform="translate(34,170)"/>
<path d="M0 0 C8.3984375 -0.1953125 8.3984375 -0.1953125 11 0 C13 2 13 2 13.25 4.875 C13 8 13 8 11.875 10.125 C11.441875 11.053125 11.441875 11.053125 11 12 C11.78309467 14.23470405 11.78309467 14.23470405 13 16 C10.625 15.6875 10.625 15.6875 8 15 C7.34 14.01 6.68 13.02 6 12 C5.01 11.67 4.02 11.34 3 11 C3 12.65 3 14.3 3 16 C2.01 16 1.02 16 0 16 C0 10.72 0 5.44 0 0 Z " fill="#F2F2F2" transform="translate(70,171)"/>
<path d="M0 0 C1.95605469 0.21264648 1.95605469 0.21264648 4 1 C5.28501632 3.71444961 6.30329 6.23444538 7.25 9.0625 C7.518125 9.82111328 7.78625 10.57972656 8.0625 11.36132812 C8.72271967 13.23588042 9.36325109 15.11734572 10 17 C8.68 17 7.36 17 6 17 C5.67 16.34 5.34 15.68 5 15 C2.69 15 0.38 15 -2 15 C-2.33 15.66 -2.66 16.32 -3 17 C-4.32 16.67 -5.64 16.34 -7 16 C-6.02394493 13.51956646 -5.04432337 11.04064915 -4.0625 8.5625 C-3.78470703 7.85544922 -3.50691406 7.14839844 -3.22070312 6.41992188 C-1.11328125 1.11328125 -1.11328125 1.11328125 0 0 Z " fill="#D9D9D9" transform="translate(133,170)"/>
<path d="M0 0 C1.65 0 3.3 0 5 0 C6.98 5.28 8.96 10.56 11 16 C9.35 16 7.7 16 6 16 C6 15.01 6 14.02 6 13 C3.6568787 13.25561323 1.32156597 13.59270772 -1 14 C-1.33 14.66 -1.66 15.32 -2 16 C-3.32 16 -4.64 16 -6 16 C-4.25192871 10.53262809 -2.34205919 5.24175152 0 0 Z " fill="#D9D9D9" transform="translate(212,171)"/>
<path d="M0 0 C0.99 0 1.98 0 3 0 C3 2.31 3 4.62 3 7 C5.64 7 8.28 7 11 7 C11 4.69 11 2.38 11 0 C11.99 0 12.98 0 14 0 C14 5.28 14 10.56 14 16 C12.68 16 11.36 16 10 16 C10 14.02 10 12.04 10 10 C8.02 10 6.04 10 4 10 C4 11.98 4 13.96 4 16 C2.68 16 1.36 16 0 16 C0 10.72 0 5.44 0 0 Z " fill="#EDEDED" transform="translate(176,171)"/>
<path d="M0 0 C0.33 0.66 0.66 1.32 1 2 C0.67 2.66 0.34 3.32 0 4 C-2.31 3.34 -4.62 2.68 -7 2 C-6.28360801 5.28843538 -6.28360801 5.28843538 -3 6.625 C-2.01 7.07875 -1.02 7.5325 0 8 C1 9 1 9 1.3125 11.375 C1 14 1 14 -0.5625 15.875 C-4.07836153 17.49770532 -6.32267449 17.02147931 -10 16 C-11.4375 13.9375 -11.4375 13.9375 -12 12 C-8.93109813 10.46554906 -6.29905734 11.45015711 -3 12 C-4.39375072 9.21249856 -6.16244861 9.10733713 -9 8 C-11 6 -11 6 -11.3125 3.5 C-11.209375 2.675 -11.10625 1.85 -11 1 C-6.78915963 -1.80722691 -4.88445782 -0.94537893 0 0 Z " fill="#E7E7E7" transform="translate(172,171)"/>
<path d="M0 0 C-0.433125 0.8353125 -0.433125 0.8353125 -0.875 1.6875 C-1.24625 2.450625 -1.6175 3.21375 -2 4 C-2.474375 4.7425 -2.94875 5.485 -3.4375 6.25 C-4.13850014 9.67711178 -3.43869565 10.41569596 -1.625 13.3125 C-0.76701156 14.55360093 0.10292921 15.78684721 1 17 C-2.21700528 16.65221564 -3.59150148 16.49927596 -5.6875 13.9375 C-6.120625 13.298125 -6.55375 12.65875 -7 12 C-7.66 12 -8.32 12 -9 12 C-9.33 13.65 -9.66 15.3 -10 17 C-10.99 17 -11.98 17 -13 17 C-13 11.72 -13 6.44 -13 1 C-12.01 1 -11.02 1 -10 1 C-9.67 2.65 -9.34 4.3 -9 6 C-8.2575 5.01 -7.515 4.02 -6.75 3 C-4.39601173 -0.13865103 -4.33515286 0 0 0 Z " fill="#F0F0F0" transform="translate(158,170)"/>
<path d="M0 0 C-1.15173355 2.46800047 -2.04783565 4.04783565 -4 6 C-3.69253971 9.89449703 -2.38362882 11.99455496 0 15 C0 15.66 0 16.32 0 17 C-1.32 17 -2.64 17 -4 17 C-5.625 14.5 -5.625 14.5 -7 12 C-7.66 12 -8.32 12 -9 12 C-9.33 13.65 -9.66 15.3 -10 17 C-10.99 17 -11.98 17 -13 17 C-13 11.72 -13 6.44 -13 1 C-12.01 1 -11.02 1 -10 1 C-9.67 2.32 -9.34 3.64 -9 5 C-8.2575 4.175 -7.515 3.35 -6.75 2.5 C-4 0 -4 0 0 0 Z " fill="#EFEFEF" transform="translate(124,170)"/>
<path d="M0 0 C3.63 0 7.26 0 11 0 C11 0.99 11 1.98 11 3 C8.36 3 5.72 3 3 3 C3 3.99 3 4.98 3 6 C5.64 6 8.28 6 11 6 C11 6.99 11 7.98 11 9 C8.36 9 5.72 9 3 9 C3 10.32 3 11.64 3 13 C5.64 13 8.28 13 11 13 C11 13.99 11 14.98 11 16 C7.37 16 3.74 16 0 16 C0 10.72 0 5.44 0 0 Z " fill="#F8F8F8" transform="translate(56,171)"/>
<path d="M0 0 C2.06097408 1.77993216 2.95735532 2.86878559 3.8125 5.5 C5.44248741 8.93155244 7.57657813 9.58597792 11 11 C11 11.99 11 12.98 11 14 C8.36 13.67 5.72 13.34 3 13 C2.67 14.65 2.34 16.3 2 18 C0.35 18 -1.3 18 -3 18 C-2.01 17.34 -1.02 16.68 0 16 C-0.38414062 15.55269531 -0.76828125 15.10539063 -1.1640625 14.64453125 C-2.62525572 12.81217932 -3.9031393 11.07280761 -5 9 C-4.3181501 5.33505677 -2.33248597 2.86259642 0 0 Z " fill="#171717" transform="translate(158,170)"/>
<path d="M0 0 C0.66 0 1.32 0 2 0 C2 5.28 2 10.56 2 16 C2.99 16.33 3.98 16.66 5 17 C-0.76926889 18.40333568 -6.18143105 17.67296616 -12 17 C-12 16.67 -12 16.34 -12 16 C-8.37 16 -4.74 16 -1 16 C-1 15.01 -1 14.02 -1 13 C-3.64 13 -6.28 13 -9 13 C-9 11.68 -9 10.36 -9 9 C-6.36 9 -3.72 9 -1 9 C-1 8.01 -1 7.02 -1 6 C-3.64 6 -6.28 6 -9 6 C-9 5.01 -9 4.02 -9 3 C-6.03 3 -3.06 3 0 3 C0 2.01 0 1.02 0 0 Z " fill="#181818" transform="translate(68,171)"/>
<path d="M0 0 C3.24208567 0.35049575 4.61527704 0.56221181 6.8125 3.0625 C7.204375 3.701875 7.59625 4.34125 8 5 C8.99 3.68 9.98 2.36 11 1 C12.32 1.33 13.64 1.66 15 2 C14.65066406 2.49628906 14.30132812 2.99257812 13.94140625 3.50390625 C10.85889249 8.10584605 9.34610059 11.46239061 9 17 C8.01 17 7.02 17 6 17 C5.90203125 16.41992188 5.8040625 15.83984375 5.703125 15.2421875 C4.67307452 9.8610617 3.22221079 6.40368808 0 2 C0 1.34 0 0.68 0 0 Z " fill="#E8E8E8" transform="translate(192,170)"/>
<path d="M0 0 C1.65 0 3.3 0 5 0 C5.33 0.66 5.66 1.32 6 2 C6.66 2 7.32 2 8 2 C7.43174347 7.54050113 5.37113483 12.03715966 3 17 C4.32 17.33 5.64 17.66 7 18 C2.25 18.125 2.25 18.125 0 17 C-1.16097818 12.19023325 -1.57481041 9.34993676 0.9375 5 C1.618125 4.01 2.29875 3.02 3 2 C2.01 1.34 1.02 0.68 0 0 Z " fill="#161616" transform="translate(203,170)"/>
<path d="M0 0 C2.9375 0.1875 2.9375 0.1875 3.9375 1.1875 C4.125 4.625 4.125 4.625 3.9375 8.1875 C1.9375 10.1875 1.9375 10.1875 -0.5625 10.4375 C-3.0625 10.1875 -3.0625 10.1875 -5.0625 8.1875 C-5.3125 5.1875 -5.3125 5.1875 -5.0625 2.1875 C-3.0625 0.1875 -3.0625 0.1875 0 0 Z " fill="#0E0E0E" transform="translate(94.0625,173.8125)"/>
<path d="M0 0 C0.99 0.33 1.98 0.66 3 1 C4.125 4 4.125 4 5 7 C6.03756992 8.2602065 6.03756992 8.2602065 8.3125 8.125 C10.71032638 8.01347319 12.70894512 7.67883108 15 7 C14.65660347 9.57547398 14.39993284 10.68894113 12.3125 12.3125 C9.10394236 13.26639552 7.19182237 12.99744449 4 12 C0.71259097 9.05863402 0.04107975 7.62646623 -0.25 3.1875 C-0.1675 2.135625 -0.085 1.08375 0 0 Z " fill="#E4E4E4" transform="translate(85,175)"/>
<path d="M0 0 C0 5.28 0 10.56 0 16 C1.32 16.33 2.64 16.66 4 17 C2.35 17 0.7 17 -1 17 C-1.350625 15.7625 -1.70125 14.525 -2.0625 13.25 C-3.31859166 9.81099177 -4.48526032 8.28910557 -7.6875 6.5 C-8.780625 6.005 -9.87375 5.51 -11 5 C-11 4.01 -11 3.02 -11 2 C-6.25 2.875 -6.25 2.875 -4 4 C-3.67 3.01 -3.34 2.02 -3 1 C-1 0 -1 0 0 0 Z " fill="#191919" transform="translate(176,171)"/>
<path d="M0 0 C0.99 0.33 1.98 0.66 3 1 C4.52160014 4.6037898 5 7.05220686 5 11 C1.125 9.25 1.125 9.25 0 7 C-0.04022391 4.6670134 -0.04320247 2.33293334 0 0 Z " fill="#EDEDED" transform="translate(85,175)"/>
<path d="M0 0 C1.23556641 0.01740234 1.23556641 0.01740234 2.49609375 0.03515625 C3.32238281 0.04417969 4.14867188 0.05320313 5 0.0625 C5.63808594 0.07410156 6.27617188 0.08570313 6.93359375 0.09765625 C6.93359375 1.08765625 6.93359375 2.07765625 6.93359375 3.09765625 C4.29359375 3.09765625 1.65359375 3.09765625 -1.06640625 3.09765625 C-1.39640625 4.08765625 -1.72640625 5.07765625 -2.06640625 6.09765625 C-2.44859392 4.44150968 -2.78035727 2.77308601 -3.06640625 1.09765625 C-2.06640625 0.09765625 -2.06640625 0.09765625 0 0 Z " fill="#EAEAEA" transform="translate(60.06640625,170.90234375)"/>
<path d="M0 0 C1.98 0.66 3.96 1.32 6 2 C5.38125 2.20625 4.7625 2.4125 4.125 2.625 C1.15346355 4.54775888 0.86975341 6.66594527 0 10 C-0.33 10 -0.66 10 -1 10 C-1.66 7.69 -2.32 5.38 -3 3 C-2.01 2.01 -1.02 1.02 0 0 Z " fill="#D8D8D8" transform="translate(89,171)"/>
<path d="M0 0 C0.99 0 1.98 0 3 0 C3 0.99 3 1.98 3 3 C3.99 3.33 4.98 3.66 6 4 C0.23073111 5.40333568 -5.18143105 4.67296616 -11 4 C-11 3.67 -11 3.34 -11 3 C-7.37 3 -3.74 3 0 3 C0 2.01 0 1.02 0 0 Z " fill="#3B3B3B" transform="translate(67,184)"/>
<path d="M0 0 C1.98 0 3.96 0 6 0 C6 1.32 6 2.64 6 4 C4.02 4 2.04 4 0 4 C0 2.68 0 1.36 0 0 Z " fill="#161616" transform="translate(73,174)"/>
<path d="M0 0 C0.99 0.33 1.98 0.66 3 1 C3 2.98 3 4.96 3 7 C2.01 7 1.02 7 0 7 C-0.93423645 3.98968256 -1.04449911 3.13349732 0 0 Z " fill="#E0E0E0" transform="translate(80,172)"/>
<path d="M0 0 C5.75 -0.125 5.75 -0.125 8 1 C7.67 1.99 7.34 2.98 7 4 C4.69 3.34 2.38 2.68 0 2 C0 1.34 0 0.68 0 0 Z " fill="#EAEAEA" transform="translate(90,170)"/>
<path d="M0 0 C0.33 0 0.66 0 1 0 C1 2.97 1 5.94 1 9 C0.01 9 -0.98 9 -2 9 C-3 6 -3 6 -1.5625 2.8125 C-1.046875 1.884375 -0.53125 0.95625 0 0 Z " fill="#282828" transform="translate(48,178)"/>
<path d="M0 0 C0.33 0 0.66 0 1 0 C1 2.97 1 5.94 1 9 C0.67 8.01 0.34 7.02 0 6 C-0.66 6 -1.32 6 -2 6 C-2 5.34 -2 4.68 -2 4 C-3.98 4 -5.96 4 -8 4 C-8 3.67 -8 3.34 -8 3 C-6.865625 2.87625 -5.73125 2.7525 -4.5625 2.625 C-3.386875 2.41875 -2.21125 2.2125 -1 2 C-0.67 1.34 -0.34 0.68 0 0 Z " fill="#040404" transform="translate(68,178)"/>
<path d="M0 0 C2.125 0.375 2.125 0.375 4 1 C2.68 1.99 1.36 2.98 0 4 C0.33 5.65 0.66 7.3 1 9 C0.01 8.67 -0.98 8.34 -2 8 C-2.125 5.125 -2.125 5.125 -2 2 C-1.34 1.34 -0.68 0.68 0 0 Z " fill="#080808" transform="translate(91,174)"/>
<path d="M0 0 C2 2 2 2 2 6 C0.35 6.66 -1.3 7.32 -3 8 C-2.5359375 7.13375 -2.5359375 7.13375 -2.0625 6.25 C-1.07416636 4.15705816 -0.4831387 2.25464725 0 0 Z " fill="#161616" transform="translate(83,175)"/>
</svg>
